<svg width="30" height="30" viewBox="0 0 30 30" fill="none" xmlns="http://www.w3.org/2000/svg">
<path d="M29.2499 23.2282C9.99993 26.5 3.43566 11.5 15.0334 0.75C-2.00001 1.5 -2.08199 18.1838 3.43566 23.9533C14.0001 35 29.2499 23.2282 29.2499 23.2282Z" fill="black"/>
<path d="M19.0001 6C18.7451 6 18.6177 5.86853 18.6177 5.60558V3.33466H16.3826C16.1276 3.33466 16.0001 3.21116 16.0001 2.96414C16.0001 2.71713 16.1276 2.59363 16.3826 2.59363H18.6177V0.394422C18.6177 0.131474 18.7451 0 19.0001 0C19.2551 0 19.3826 0.131474 19.3826 0.394422V2.59363H21.6177C21.8726 2.59363 22.0001 2.71713 22.0001 2.96414C22.0001 3.21116 21.8726 3.33466 21.6177 3.33466H19.3826V5.60558C19.3826 5.86853 19.2551 6 19.0001 6Z" fill="black"/>
<path d="M26.5001 11C26.2876 11 26.1814 10.8904 26.1814 10.6713V8.77888H24.3188C24.1064 8.77888 24.0001 8.67596 24.0001 8.47012C24.0001 8.26428 24.1064 8.16135 24.3188 8.16135H26.1814V6.32869C26.1814 6.10956 26.2876 6 26.5001 6C26.7126 6 26.8188 6.10956 26.8188 6.32869V8.16135H28.6814C28.8939 8.16135 29.0001 8.26428 29.0001 8.47012C29.0001 8.67596 28.8939 8.77888 28.6814 8.77888H26.8188V10.6713C26.8188 10.8904 26.7126 11 26.5001 11Z" fill="black"/>
<path d="M16.5001 16C16.2876 16 16.1814 15.8904 16.1814 15.6713V13.7789H14.3188C14.1064 13.7789 14.0001 13.676 14.0001 13.4701C14.0001 13.2643 14.1064 13.1614 14.3188 13.1614H16.1814V11.3287C16.1814 11.1096 16.2876 11 16.5001 11C16.7126 11 16.8188 11.1096 16.8188 11.3287V13.1614H18.6814C18.8939 13.1614 19.0001 13.2643 19.0001 13.4701C19.0001 13.676 18.8939 13.7789 18.6814 13.7789H16.8188V15.6713C16.8188 15.8904 16.7126 16 16.5001 16Z" fill="black"/>
<path d="M26.5001 21C26.2876 21 26.1814 20.8904 26.1814 20.6713V18.7789H24.3188C24.1064 18.7789 24.0001 18.676 24.0001 18.4701C24.0001 18.2643 24.1064 18.1614 24.3188 18.1614H26.1814V16.3287C26.1814 16.1096 26.2876 16 26.5001 16C26.7126 16 26.8188 16.1096 26.8188 16.3287V18.1614H28.6814C28.8939 18.1614 29.0001 18.2643 29.0001 18.4701C29.0001 18.676 28.8939 18.7789 28.6814 18.7789H26.8188V20.6713C26.8188 20.8904 26.7126 21 26.5001 21Z" fill="black"/>
</svg>
